<svg xmlns="http://www.w3.org/2000/svg" width="731.67004" height="404.48721" viewBox="0 0 731.67004 404.48721" xmlns:xlink="http://www.w3.org/1999/xlink"><path d="M0,403.29721c0,.66003,.53003,1.19,1.19006,1.19H730.48004c.65997,0,1.19-.52997,1.19-1.19,0-.65997-.53003-1.19-1.19-1.19H1.19006c-.66003,0-1.19006,.53003-1.19006,1.19Z" fill="#3f3d56"/><g><g><path d="M254.28441,136.56315l6.24487-21.88741,9.10519,4.68633,44.02065-16.29033,7.3895-3.13454c2.19034-2.9221,5.04873-5.27629,8.33542-6.86685,8.16703-4.09051,16.89794-3.19262,19.50061,2.00561,2.60222,5.19743-1.90824,12.72595-10.07855,16.81723-3.24185,1.67881-6.83789,2.55702-10.48841,2.56105l-25.16999,12.21292-34.14406,16.87912-14.71524-6.98313Z" fill="#ffb6b6"/><path d="M237.52126,107.22835l1.26519,17.13948,19.17976,18.81965,1.59281-4.12426,3.45837-8.93571,4.56055-11.82621,1.04731-2.70511-15.0342-17.31421-12.48038-14.38003c-2.9459,7.37593-4.16794,15.35063-3.58941,23.32639Z" fill="#e6e6e6"/></g><g><path d="M342.81611,67.05563s-1.92298-6.2735,.62974-11.12093c2.55271-4.84744,5.48289-10.44408,5.48289-10.44408,0,0,4.52044,1.22757,2.37278,10.7549,0,0,6.21829-12.78117,8.66438-11.60406s1.73021,4.35289,1.73021,4.35289h0c2.09754-.28929,4.17058,.67409,5.30192,2.46391l-3.38335,7.79958s9.08792-7.63669,10.14461-6.77277c1.05669,.86391,2.64668,7.1252,2.64668,7.1252,0,0,4.02018-1.17949,5.78132,.26037,1.76115,1.43986-4.53551,10.86642-4.53551,10.86642,1.80708-2.87057,4.24171-3.39121,7.26643-1.69959,0,0-3.58651,14.52181-13.36279,14.40376-3.35071-.04046-10.7314,5.20404-15.03782,2.86733-8.2583-4.48104-13.70148-19.25292-13.70148-19.25292Z" fill="#00cbee"/><path d="M354.38566,68.93363c-2.73644-7.29115-4.12013-9.48021-4.12013-9.48021,0,0-7.0365-1.16903-7.98752,6.7509l-1.49269-2.63077s-2.37417,5.71301,5.55665,16.0612c8.58163,11.19739,18.01298,8.37919,18.91472,6.76663,0,0,13.67603,2.24856,18.65865-10.60258l-4.45618-.58737-13.90308,7.08599,.24197-5.0791c.15938-3.34557-3.65563-5.35902-6.32774-3.3396,0,0-2.34822,2.34607-5.08466-4.94508Z" fill="#3f3d56"/><path d="M332.25001,124.03945c-.40579-.23152-.63161-.70751-.52271-1.18755,4.37531-19.41145,18.40803-41.75336,18.54915-41.97705,.32237-.50912,1.00139-.66511,1.50555-.33943,.50866,.32211,.66114,.99544,.33923,1.50483-.13954,.22091-13.97337,22.25188-18.26627,41.29206-.13196,.5871-.71582,.95684-1.30357,.82389-.10891-.02411-.2093-.06422-.30138-.11675Z" fill="#3f3d56"/></g><g><path d="M385.8098,95.36458c2.69843,1.54869,4.98664,3.72038,6.67349,6.33462l10.58268,6.4468,31.84167,17.92227,12.17567,13.79799-11.08348,9.43527-39.22619-27.9752-11.34093-7.72119c-3.10446-.2219-6.11036-1.1841-8.76567-2.80694-6.69932-3.96508-10.08242-10.63644-7.55839-14.89845,2.52467-4.26286,10.00033-4.5027,16.70115-.53518Z" fill="#ffb6b6"/><polygon points="434.90384 126.06931 438.70048 146.99424 439.16927 149.61305 482.48195 121.651 485.74375 108.35131 485.72244 108.23198 482.27473 92.1281 434.90384 126.06931" fill="#e6e6e6"/></g><g><polygon points="217.01124 386.60316 228.05549 389.98511 246.35811 348.99597 230.05796 344.00408 217.01124 386.60316" fill="#ffb6b6"/><path d="M254.92584,397.94331h0c.16646,.68448-.22468,2.60926-.43098,3.28275h0c-.63413,2.07013-2.82636,3.23429-4.89656,2.60014l-34.20174-10.47684c-1.41223-.4326-2.20645-1.92816-1.77383-3.34046l.43618-1.42393s-.38097-4.79792,4.71824-9.00577c0,0,3.06415,5.45652,11.51502,.969l2.96635-2.87158,10.71551,14.32943,7.36561,3.28684c1.61145,.71907,3.16906,.93577,3.58605,2.65038l.00013,.00004Z" fill="#2f2e41"/></g><g><polygon points="330.34756 396.82044 341.56751 394.07713 336.32779 349.49417 319.76808 353.54258 330.34756 396.82044" fill="#ffb6b6"/><path d="M368.72723,387.17074h0c.49316,.503,1.14162,2.35699,1.30885,3.04123h0c.51402,2.10318-.77422,4.22487-2.87747,4.73891l-34.74771,8.49232c-1.43478,.35066-2.88223-.52818-3.2329-1.96302l-.35356-1.44666s-2.78157-3.92785-.55235-10.15188c0,0,5.42405,3.12127,10.3902-5.0575l1.08004-3.98481,16.5373,6.83172,8.01035-.94335c1.7525-.20641,3.20175-.81695,4.43711,.44307l.00014-.00003Z" fill="#2f2e41"/></g><g><polygon points="453.79466 395.75945 440.84686 395.75819 434.68751 345.81609 453.79726 345.81743 453.79466 395.75945" fill="#ffb6b6"/><path d="M409.43385,395.46574h0c-.40315,.67898-.61587,2.87042-.61587,3.66001h0c0,2.42701,1.96745,4.39454,4.39454,4.39454h40.09784c1.65569,0,2.99797-1.3422,2.99797-2.99797v-1.6694s1.9836-5.01742-2.10028-11.20166c0,0-5.07572,4.84236-12.66016-2.74208l-2.23658-4.05174-16.18978,11.84038-8.97375,1.10458c-1.96327,.24164-3.7039-.0375-4.71378,1.66333h-.00016Z" fill="#2f2e41"/></g><g><polygon points="496.61044 385.95018 484.0599 389.13285 465.8088 342.23884 484.33211 337.54101 496.61044 385.95018" fill="#ffb6b6"/><path d="M453.53952,396.5739h0c-.22381,.75727,.10888,2.93372,.30304,3.69908h0c.59681,2.35249,2.98766,3.7758,5.34023,3.17898l38.86663-9.86015c1.60485-.40714,2.57587-2.0382,2.16871-3.64313l-.41051-1.61814s.6889-5.35113-4.79031-10.34125c0,0-3.72912,5.9418-12.9457,.45528l-3.16424-3.37735-12.78109,15.45792-8.42659,3.27733c-1.84357,.71699-3.59939,.87445-4.16002,2.77139l-.00015,.00004Z" fill="#2f2e41"/></g><path d="M433.91087,161.79937l37.0938,4.36398,6.54597,16.36491s14.18292,16.36491-4.36398,48.00374l-6.54597,50.18573,24.32819,77.20746-27.05661,1-25.77075-73.74304-11.86761-63.37811-1.09099-25.09287,8.72795-34.91181Z" fill="#2f2e41"/><polygon points="436.09286 218.53107 426.27391 221.80405 429.96888 358.92519 459.96888 358.92519 436.09286 218.53107" fill="#2f2e41"/><path d="M314.44701,192.8927l25.09287,169.1041-18.5469,1.09099-35.45731-104.18994-9.49118,51.38086-34.69409,50.62709-17.45591-4.36398,27.6379-71.91556-6.90901-53.54877s-7.63696-24.00187,0-34.91181c7.63696-10.90994,69.82363-3.27298,69.82363-3.27298Z" fill="#2f2e41"/><polygon points="478.09613 56.51843 478.64163 77.79282 462.82221 82.70229 456.82175 77.79282 455.18526 59.79141 478.09613 56.51843" fill="#ffb6b6"/><polygon points="258.8063 58.70042 265.35227 40.15352 290.44514 57.60943 284.99016 72.88334 258.8063 58.70042" fill="#ffb6b6"/><path d="M426.03419,129.0802l3.49086,15.601,3.93834,17.61998,37.95573,4.462,11.06283-45.11218,3.2618-13.29969-.02131-.11933-3.44771-16.10388-3.1968-14.88078h-22.50708s-24.25278,27.43893-24.25278,27.43893c-3.98202,4.51633-6.36058,10.17906-6.85174,16.06979-.22907,2.76051-.04368,5.56471,.56787,8.32416Z" fill="#e6e6e6"/><circle cx="460.64023" cy="42.33551" r="24.00187" fill="#ffb6b6"/><circle cx="288.26315" cy="34.69855" r="24.00187" fill="#ffb6b6"/><path d="M237.52126,107.22835l1.26519,17.13948,5.31327,72.03758,.1417,.1417c.09855,.10974,10.28827,10.00433,26.82791,1.19008,15.96112-8.51061,47.22918,3.18562,47.54508,3.30495l.96048,.36011-7.61565-33.28598-5.48747-23.94754-3.92769-17.20447-4.17859-18.23047-8.54204-37.32287-34.54105-15.60207-12.04462,23.39138c-.78575,1.53847-1.50544,3.09825-2.12712,4.70172-2.9459,7.37593-4.16794,15.35063-3.58941,23.32639Z" fill="#e6e6e6"/><path d="M297.5366,31.97106l3.27298-2.18199v-7.63696s15.27392,3.27298,12.00094-8.72795c-3.27298-12.00094-18.42476-14.43894-30.54784-13.09193-.49095,.05455-.98189,.10364-1.47161,.14769-11.70074,1.05245-21.21853,9.94302-22.66253,21.60191-1.56851,12.66415-.93907,26.1721,8.86023,26.25414l9.81895,3.27298s-4.36398-20.72889,4.36398-16.36491,16.36491-3.27298,16.36491-3.27298Z" fill="#2f2e41"/><g><path d="M325.88463,64.32493s-4.77916-4.49602-4.96417-9.9714-.41343-11.78855-.41343-11.78855c0,0,4.53466-1.17393,7.39068,8.16553,0,0-.93286-14.18292,1.77508-14.37271,2.70794-.18979,3.65995,2.92337,3.65995,2.92337h0c1.6785-1.29074,3.95651-1.4813,5.82612-.48736l.92652,8.45116s4.10904-11.13666,5.45497-10.90994c1.34593,.22671,5.82983,4.87715,5.82983,4.87715,0,0,2.9073-3.01673,5.15052-2.63887s1.44559,11.6859,1.44559,11.6859c.14703-3.38881,2.00367-5.04754,5.46916-5.0772,0,0,4.08134,14.39057-4.46855,19.13281-2.93038,1.62535-6.74205,9.83818-11.64048,9.94269-9.39356,.20041-21.44177-9.93257-21.44177-9.93257Z" fill="#00cbee"/><path d="M336.86429,60.22266c-5.99003-4.97681-8.27668-6.19245-8.27668-6.19245,0,0-6.69103,2.47166-3.59223,9.82197l-2.60023-1.54529s.76902,6.13871,12.7857,11.19662c13.00278,5.47299,19.79799-1.64866,19.78208-3.49616,0,0,12.99291-4.82431,10.95211-18.45565l-4.16159,1.69815-8.56425,13.04456-2.30685-4.53147c-1.51951-2.98485-5.83092-2.84309-7.15108,.23512,0,0-.87697,3.20143-6.867-1.77538Z" fill="#3f3d56"/><path d="M344.94637,119.05562c-.46719,0-.89922-.30151-1.04252-.77243-5.81935-19.02847-4.70278-45.38813-4.69106-45.65235,.0277-.60196,.54017-1.07395,1.13947-1.04092,.60143,.0277,1.06755,.53697,1.04039,1.13894-.01172,.26103-1.10964,26.25205,4.5973,44.91721,.17633,.57533-.14756,1.18582-.72396,1.36161-.10654,.03303-.21362,.04794-.31963,.04794Z" fill="#3f3d56"/></g><g><path d="M253.1567,145.2033l19.84994-5.19776,.54166,9.21595,32.84123,26.68406,5.82325,4.29576c3.27261,.35878,6.41108,1.49655,9.15353,3.3171,6.92186,4.46044,10.23155,11.64752,7.39211,16.05251-2.83902,4.40427-10.7508,4.35892-17.67476-.10372-2.79035-1.74525-5.12198-4.13274-6.80025-6.96363l-21.02704-13.92727-28.76595-18.74979-1.33372-14.62323Z" fill="#ffb6b6"/><polygon points="266.04702 77.7927 283.61455 87.76771 280.32937 150.60887 246.71102 156.22209 266.04702 77.7927" fill="#e6e6e6"/></g><g><path d="M456.25827,190.16532c1.90915-2.45665,4.37814-4.42037,7.20169-5.727l7.85679-9.58254,22.17909-29.03769,15.35814-10.13701,7.80103,12.28868-33.16185,34.95136-9.2243,10.15606c-.65177,3.04337-2.02292,5.88611-3.99949,8.28975-4.8588,6.08233-11.93605,8.5041-15.80533,5.41151-3.87004-3.09334-3.0672-10.52963,1.79423-16.61312Z" fill="#ffb6b6"/><polygon points="465.34491 92.0131 486.07054 77.20957 517.40476 144.87862 493.49584 145.81808 465.34491 92.0131" fill="#e6e6e6"/></g><path d="M440.45683,29.78908s3.66409-7.58397,5.62805-1.98393c1.96396,5.60004,12.43841,19.60015,12.43841,19.60015,0,0,5.56455,7.77784-.65465,14.31122-6.2192,6.53338-19.63959,38.26695-.98198,32.97802,18.65761-5.28893,28.15008,7.15561,28.15008,7.15561,0,0,16.039,1.24445,13.74771-14.93345-2.29129-16.1779-14.07504-26.75576-14.07504-46.3559s-11.1291-28.00021-17.67563-27.06687c-6.54653,.93334-30.50486,1.05059-26.57695,16.29514Z" fill="#2f2e41"/></g></svg>